<svg
    width={1400}
    height={350}
    viewBox="0 0 370.41667 92.604165"
    id="svg1"
  >
    <defs id="defs1" />
    <g id="layer1">
      <path
        id="text1"
        style={{
          fontStyle: "italic",
          fontWeight: 900,
          fontSize: "54.3121px",
          lineHeight: 1,
          fontFamily: "Inter",
          InkscapeFontSpecification: "'Inter Heavy Italic'",
          wordSpacing: 0,
          fill: "#130a19",
          fillOpacity: 1,
          strokeWidth: 2,
        }}
        d="m 139.6612,25.573116 c -2.89304,0 -5.59358,2.159996 -6.05647,4.860169 -0.46289,2.661598 1.58161,4.860685 4.47466,4.860685 2.89303,0 5.59341,-2.199087 6.01772,-4.860685 0.42431,-2.700173 -1.54287,-4.860169 -4.43591,-4.860169 z m 86.40558,0 c -2.89304,0 -5.5936,2.159996 -6.05648,4.860169 -0.46289,2.661598 1.58163,4.860685 4.47467,4.860685 2.89304,0 5.5934,-2.199087 6.01772,-4.860685 0.42431,-2.700173 -1.54286,-4.860169 -4.43591,-4.860169 z M 49.159754,28.50472 42.602015,68.004635 h 39.499918 l 6.55722,-39.499915 z m 44.791069,0 -6.55723,39.499915 h 15.429547 c 12.03505,0 20.59847,-7.097994 22.60431,-19.210197 2.08298,-12.575091 -4.47474,-20.289718 -16.6641,-20.289718 z m 143.880617,2.777608 -1.17616,7.097241 h -3.76101 l -1.31155,7.714775 h 3.79926 l -2.21796,13.38523 c -1.15722,6.171823 2.16053,9.315777 9.64386,8.949324 2.39159,-0.115722 4.24312,-0.617451 5.32319,-0.926042 l -0.30851,-7.483264 c -0.46289,0.07715 -1.54341,0.308509 -2.16059,0.308509 -1.38867,0 -1.90921,-0.617202 -1.69706,-1.851567 l 2.06396,-12.38219 h 5.07204 l 1.31155,-7.714775 h -5.1108 l 1.17616,-7.097241 z M 103.17041,37.60804 h 3.97288 c 6.17183,0 9.02629,2.082989 7.71478,10.10636 -1.38866,8.486257 -5.47768,11.186914 -11.34091,11.186914 h -3.895887 z m 55.89323,0.386023 c -5.86324,0 -12.34361,4.474496 -14.118,15.198039 -1.69725,10.260657 2.93171,14.42651 9.25783,14.42651 4.01168,0 7.48322,-1.696892 9.10332,-4.705656 h 0.30851 l -0.84853,5.014164 c -0.46289,3.47165 -2.69987,4.629175 -5.47719,4.629175 -2.46872,0 -4.089,-0.694402 -4.16615,-2.623096 h -10.26087 c -0.46289,5.708936 4.01182,9.797852 12.96096,9.797852 9.33489,0 16.27841,-4.243448 17.43563,-11.803931 l 4.93717,-29.547551 h -10.64638 l -0.84853,5.169194 h -0.23151 c -0.69434,-3.008764 -3.00884,-5.5547 -7.40626,-5.5547 z m 44.20557,0 c -4.37814,0 -8.23552,2.236962 -10.10636,6.017204 h -0.30851 l 0.92604,-5.631698 h -10.10636 l -4.93768,29.625066 h 10.64638 l 2.7776,-16.6641 c 0.48217,-2.931616 2.48795,-4.706172 5.09168,-4.706172 2.71946,0 3.95381,1.774556 3.47163,4.706172 l -2.77761,16.6641 h 10.64638 l 3.16311,-18.901172 c 1.09935,-6.480415 -2.21804,-11.1094 -8.4863,-11.1094 z m 66.88739,0 c -8.87199,0 -14.04067,4.629017 -15.27504,10.029362 h 9.79734 c 0.54003,-1.851547 2.08331,-2.70061 4.08915,-2.70061 1.85155,0 3.00854,0.848629 2.77709,2.391585 v 0.07752 c -0.30859,1.697252 -2.31414,2.237357 -7.32875,2.623096 -6.17182,0.462886 -11.34088,2.931414 -12.42095,9.411828 -1.00291,5.863232 2.54602,8.640816 8.1778,8.640816 v -5.16e-4 c 3.8574,0 7.02039,-1.311304 9.33483,-4.628658 h 0.23151 l -0.69453,4.166154 h 9.95185 l 3.39462,-20.29024 c 0.92577,-5.477493 -3.62581,-9.720337 -12.03492,-9.720337 z m 31.1676,0 c -8.13909,0 -13.59738,3.124517 -14.58102,9.026323 -0.82934,4.937458 1.92906,8.216338 7.79229,9.257833 l 5.09168,0.925524 c 2.25657,0.443601 2.93176,0.77143 2.85461,1.620057 -0.21216,1.504381 -2.1411,2.623245 -4.39767,2.546097 -2.08299,-0.03857 -3.41376,-1.002908 -3.47162,-2.931604 H 284.2746 c -0.40503,6.017528 4.32062,10.10636 13.6555,10.10636 7.94622,0 14.31053,-3.645465 15.35203,-9.720853 0.7329,-4.648155 -2.00555,-7.483233 -7.86877,-8.563302 l -5.86321,-1.080037 c -2.17943,-0.424313 -2.4496,-0.945163 -2.31459,-1.543059 0.21216,-1.504382 2.1986,-2.545581 4.32015,-2.545581 1.81298,0 3.22113,1.080057 3.08612,2.931604 h 9.56634 c 0.82934,-6.24897 -4.01197,-10.029362 -12.88397,-10.029362 z m -169.03051,0.385506 -4.93768,29.625066 h 10.64638 l 4.93768,-29.625066 z m 86.40507,0 -4.93717,29.625066 h 10.64638 l 4.93768,-29.625066 z m -57.01203,7.79229 c 2.93162,0 4.24295,2.622819 3.54862,7.020243 -0.69433,4.320277 -2.93159,6.866248 -5.8632,6.866248 -2.93162,0 -4.16596,-2.468823 -3.47163,-6.866248 0.69433,-4.397424 2.8546,-7.020243 5.78621,-7.020243 z m 108.70138,8.87181 -0.38603,2.468583 c -0.46288,2.700172 -3.0086,4.243152 -5.40018,4.243152 -1.85155,0 -2.93154,-0.925478 -2.7001,-2.545581 0.23144,-1.542956 1.54277,-2.700377 4.08864,-3.086117 1.69725,-0.308591 3.24045,-0.617151 4.39767,-1.080037 z m 52.61487,2.854606 c -3.00875,0 -5.70913,2.391573 -6.01772,5.323189 -0.30859,3.008764 1.85141,5.400187 4.86017,5.400187 2.77733,0 5.63213,-2.391423 5.94072,-5.400187 0.30859,-2.931616 -1.9287,-5.323189 -4.78317,-5.323189 z"
      />
    </g>
  </svg>